<?xml version="1.0" standalone="no"?>
<!DOCTYPE svg PUBLIC "-//W3C//DTD SVG 1.1//EN" "http://www.w3.org/Graphics/SVG/1.1/DTD/svg11.dtd">
<svg xmlns="http://www.w3.org/2000/svg" xmlns:xlink="http://www.w3.org/1999/xlink" width="375" zoomAndPan="magnify" viewBox="0 0 375 374.999991" height="375" preserveAspectRatio="xMidYMid meet" version="1.0"><defs><g/><clipPath id="1d181f4569"><path d="M 92.113281 90.816406 L 279.613281 90.816406 L 279.613281 278 L 92.113281 278 Z M 92.113281 90.816406 " clip-rule="nonzero"/></clipPath></defs><rect x="-37.5" width="450" fill="#ffffff" y="-37.499999" height="449.999989" fill-opacity="1"/><rect x="-37.5" width="450" fill="#fffef9" y="-37.499999" height="449.999989" fill-opacity="1"/><g clip-path="url(#1d181f4569)"><path fill="#122620" d="M 185.699219 277.988281 C 133.996094 277.988281 92.113281 235.816406 92.113281 184.402344 C 92.113281 132.988281 133.996094 90.816406 185.699219 90.816406 C 237.402344 90.816406 279.285156 132.699219 279.285156 184.402344 C 279.285156 236.105469 237.113281 277.988281 185.699219 277.988281 Z M 185.699219 96.59375 C 137.175781 96.59375 97.890625 135.875 97.890625 184.402344 C 97.890625 232.929688 137.175781 272.210938 185.699219 272.210938 C 234.226562 272.210938 273.507812 232.929688 273.507812 184.402344 C 273.507812 135.875 233.9375 96.59375 185.699219 96.59375 Z M 185.699219 96.59375 " fill-opacity="1" fill-rule="nonzero"/></g><path stroke-linecap="butt" transform="matrix(1.465975, 0, 0, 1.465975, 37.500002, 122.856846)" fill="none" stroke-linejoin="miter" d="M 26.539499 104.742153 C 27.802523 104.742153 29.204107 104.31848 30.746915 103.465806 C 32.303047 102.629118 33.77391 101.637884 35.156842 100.494767 C 36.553097 99.348986 37.602953 98.293801 38.309074 97.321219 C 38.74607 96.777638 39.127109 96.298009 39.446862 95.884995 C 39.777273 95.474645 40.136995 94.995015 40.523364 94.448771 C 40.789824 93.905191 41.080267 93.398915 41.40002 92.932608 C 41.733096 92.48229 42.01288 91.981343 42.239371 91.437763 C 43.102705 89.748401 43.667602 88.272208 43.934062 87.009184 C 44.213846 85.759483 44.339083 84.52044 44.312437 83.297384 C 44.285791 82.074329 44.192529 80.699391 44.032653 79.169906 C 43.648949 79.273826 43.342519 79.420379 43.116028 79.606902 C 42.902859 79.806747 42.609752 80.046562 42.239371 80.326346 C 42.01288 80.539515 41.773065 80.726037 41.519927 80.883249 C 41.280112 81.056449 41.026975 81.250965 40.763178 81.464134 L 36.353251 85.391767 C 34.877058 86.748052 33.672655 87.845871 32.742707 88.685223 C 31.826082 89.535233 30.941432 90.419883 30.088757 91.336508 C 29.25207 92.269121 28.207543 93.577444 26.957842 95.266805 C 26.571474 95.759758 26.094509 96.436569 25.521618 97.302566 C 24.948727 98.179222 24.445116 99.111835 24.005456 100.095076 C 23.579119 101.078316 23.36595 101.949643 23.36595 102.709057 C 23.36595 103.692297 23.565796 104.278511 23.965487 104.465034 C 24.378501 104.648892 25.076629 104.742153 26.059869 104.742153 C 26.166453 104.742153 26.259715 104.742153 26.339653 104.742153 C 26.419591 104.742153 26.486206 104.742153 26.539499 104.742153 Z M 4.156788 57.285477 C 4.156788 54.333091 4.660399 51.252803 5.67295 48.049944 C 6.682837 44.831097 7.959184 41.670871 9.501992 38.571932 C 11.058124 35.462334 12.627578 32.680483 14.210355 30.234372 C 14.916477 28.918056 15.825108 27.513807 16.944244 26.024291 C 18.060715 24.521452 19.230478 23.039929 20.453533 21.577059 C 21.676588 20.100866 22.809047 18.816525 23.845579 17.7267 C 25.694818 15.930754 27.570702 14.289355 29.470568 12.799839 C 31.386421 11.297 33.448828 10.079274 35.655124 9.149326 C 37.864084 8.216713 40.302201 7.753071 42.977468 7.753071 C 45.583455 7.92627 47.717806 8.922834 49.380522 10.745426 C 51.043238 12.565354 52.279616 14.814283 53.089657 17.486885 C 53.915686 20.159488 54.326035 22.912028 54.326035 25.747172 C 54.326035 28.950031 54.000953 32.216841 53.350789 35.539608 C 52.697959 38.865039 51.986509 41.971972 51.216437 44.857743 C 50.949976 46.107445 50.662199 47.210592 50.358433 48.167187 C 50.065326 49.126446 49.452466 49.603411 48.522518 49.603411 C 47.869689 49.603411 47.517961 49.113123 47.464669 48.127218 C 47.411376 47.143977 47.504638 45.960891 47.744452 44.577959 C 47.99759 43.181704 48.26938 41.88404 48.562487 40.687631 C 48.868917 39.491222 49.074092 38.699833 49.180676 38.313465 C 49.567045 35.973939 49.90545 33.458548 50.198557 30.772623 C 50.504987 28.073375 50.544956 25.387449 50.318464 22.714847 C 50.105295 20.03958 49.42582 17.614787 48.282703 15.432472 C 47.459339 13.863018 46.473434 12.765199 45.330317 12.141681 C 44.1872 11.502175 42.964145 11.182422 41.661151 11.182422 C 40.51537 11.182422 39.35893 11.390261 38.189167 11.800611 C 37.019403 12.213625 35.886945 12.719901 34.79712 13.316773 C 34.040371 13.809726 33.182367 14.369294 32.223108 14.992812 C 31.266514 15.618995 30.461802 16.255836 29.811638 16.908665 C 29.425269 17.295034 29.052224 17.614787 28.692502 17.86526 C 28.346103 18.105075 27.989046 18.438151 27.616 18.864488 L 17.959459 30.394249 C 16.869635 32.08361 16.011631 33.485194 15.388112 34.60433 C 14.761929 35.720801 14.071796 36.983825 13.312382 38.393403 C 12.54231 39.603135 11.750922 41.145944 10.938216 43.021828 C 10.128175 44.897712 9.416725 46.805572 8.803865 48.748071 C 8.206993 50.674583 7.772661 52.318647 7.508865 53.674932 C 7.348989 54.937957 7.23441 56.169006 7.167795 57.365415 C 7.114503 58.561824 7.282373 59.758234 7.666077 60.954643 C 8.212322 62.310928 9.216879 63.275517 10.679749 63.848407 C 12.155942 64.418634 13.792012 64.765033 15.587958 64.88494 C 17.394562 64.991524 19.030632 65.071463 20.493502 65.124755 C 22.462648 65.231339 24.231948 65.297954 25.801402 65.324601 C 27.384179 65.351247 28.966957 65.449837 30.549734 65.623037 C 32.129847 65.782913 33.872501 66.187934 35.775031 66.840763 C 36.864856 67.160516 38.074588 67.698767 39.406893 68.455515 C 40.749855 69.228252 41.964917 70.131554 43.057406 71.168087 C 44.147231 72.207284 44.824042 73.297109 45.090502 74.440226 C 46.286912 73.616862 47.677837 72.567006 49.260615 71.287994 C 50.843392 70.011647 52.431499 68.690001 54.027599 67.320392 C 55.637023 65.961442 57.0466 64.791679 58.256333 63.808438 L 64.542144 58.263388 C 65.085724 57.717143 65.605323 57.250837 66.098275 56.867133 C 66.588563 56.480765 67.108162 56.014459 67.651742 55.470879 C 68.571032 54.498296 69.261165 53.853461 69.727472 53.533708 C 70.193778 53.203297 70.585476 53.035426 70.905229 53.035426 C 71.131721 53.035426 71.323572 53.062073 71.483449 53.115365 C 71.643325 53.168657 71.835177 53.221949 72.061669 53.275241 C 72.061669 53.821486 72.114961 54.146568 72.221545 54.253152 C 72.32813 54.359737 72.368099 54.458327 72.341453 54.551589 C 72.314807 54.631527 72.12029 54.823379 71.763233 55.129809 C 71.416834 55.422916 70.777328 56.027782 69.847379 56.947072 C 68.051433 58.687061 66.402041 60.216546 64.899201 61.532863 C 63.409685 62.838521 61.821579 64.30672 60.132217 65.94279 L 54.90692 70.19284 C 54.467259 70.509929 53.822424 71.010875 52.96975 71.687685 C 52.133062 72.380484 51.235089 73.105257 50.278495 73.862006 C 49.332559 74.621419 48.487878 75.311553 47.744452 75.937736 C 47.011685 76.574577 46.566695 77.027561 46.406819 77.294022 C 46.619988 78.170678 46.80651 79.055328 46.966387 79.947972 C 47.139586 80.851274 47.224854 81.821191 47.224854 82.860389 C 47.224854 85.74616 46.553372 88.63193 45.21041 91.517701 C 43.88077 94.403472 42.164762 97.054758 40.065051 99.476887 C 37.962675 101.896351 35.743056 103.830857 33.400865 105.280404 C 31.061339 106.729951 28.887019 107.454724 26.877904 107.454724 C 26.107832 107.454724 25.241834 107.369457 24.28524 107.196257 C 23.339304 107.036381 22.507946 106.697976 21.791166 106.178377 C 21.085045 105.661443 20.733317 104.830085 20.733317 103.686968 C 20.733317 101.677853 21.071722 99.935199 21.751197 98.459006 C 22.441331 96.982813 23.387267 95.426682 24.583676 93.790612 C 26.379622 91.29121 28.255506 89.116889 30.208664 87.267651 C 32.17781 85.418413 34.25354 83.537199 36.43319 81.621346 L 42.977468 76.236172 C 41.501275 73.456985 39.644043 71.535803 37.411101 70.469959 C 35.175494 69.406781 32.4496 68.690001 29.230753 68.316956 L 22.627853 67.818674 C 20.061835 67.765382 17.674346 67.71209 15.468051 67.658797 C 13.25909 67.605505 11.231323 67.219137 9.382085 66.502357 C 7.639431 65.849528 6.331108 64.738387 5.451787 63.168932 C 4.588454 61.586155 4.156788 59.625003 4.156788 57.285477 Z M 72.943654 52.217392 C 73.980187 51.673812 75.123304 50.922392 76.373005 49.963133 C 77.63603 49.006538 78.320834 47.876745 78.427418 46.573751 C 77.723962 46.677671 76.972542 47.05871 76.17316 47.708874 C 75.389765 48.361703 74.71029 49.0998 74.140064 49.923164 C 73.567173 50.735869 73.167481 51.500612 72.943654 52.217392 Z M 69.271824 54.173214 C 69.271824 52.816929 69.716814 51.346065 70.609457 49.763287 C 71.51276 48.18051 72.629231 46.832218 73.95887 45.715747 C 75.301833 44.596612 76.626143 44.039708 77.929137 44.039708 C 79.725083 44.039708 80.663025 44.724513 80.742963 46.094121 C 80.836224 47.450407 80.258004 48.918606 79.005638 50.501384 C 78.342151 51.207505 77.35891 52.02554 76.053252 52.955488 C 74.750259 53.874778 73.473911 54.386383 72.22421 54.492967 C 72.22421 55.369623 72.250856 56.147689 72.304148 56.827164 C 72.35744 57.503975 72.735815 58.196773 73.441936 58.90023 C 74.145393 59.619674 75.043366 59.976731 76.133191 59.976731 C 77.556092 59.976731 79.026955 59.531742 80.543118 58.641763 C 82.072603 57.73846 83.242366 56.987041 84.055071 56.387504 C 84.385483 56.10772 84.646615 55.889222 84.830473 55.729346 C 85.030318 55.556146 85.264804 55.364294 85.531265 55.151126 C 86.674382 54.285128 87.391161 53.648286 87.684268 53.235272 C 87.990698 52.822258 88.249165 52.550468 88.462334 52.417237 C 88.688826 52.284007 89.208424 52.217392 90.018465 52.217392 C 90.138373 52.816929 90.183671 53.221949 90.157025 53.435118 C 90.130379 53.648286 89.925204 53.973369 89.538836 54.413029 C 88.555595 55.39627 87.311223 56.51274 85.808384 57.762442 C 84.318868 59.014808 82.717438 60.104633 81.00143 61.034581 C 79.285422 61.967194 77.582738 62.430836 75.89604 62.430836 C 75.01672 62.430836 74.185362 62.284282 73.401967 61.99384 C 72.615907 61.68741 71.864488 61.175805 71.147708 60.456361 C 70.175126 59.486443 69.618223 58.481886 69.47167 57.445353 C 69.338439 56.406156 69.271824 55.316331 69.271824 54.173214 Z M 63.961259 30.554125 C 63.961259 29.848004 64.619418 29.104578 65.935734 28.318519 C 67.238728 27.521801 68.88812 26.743735 70.883912 25.984322 C 72.863716 25.21425 74.958098 24.489476 77.167059 23.810001 C 79.360031 23.133191 81.390463 22.546977 83.25036 22.056689 C 85.099598 21.563736 86.490524 21.185362 87.420472 20.918901 C 88.563589 20.585825 89.362971 20.393973 89.81329 20.340681 C 90.279597 20.287389 90.578033 20.114189 90.711263 19.821082 C 90.857817 19.514652 91.012364 18.896463 91.169576 17.966515 C 91.609236 15.730908 92.115512 14.196094 92.685738 13.356742 C 93.258629 12.506732 93.818197 12.080395 94.361777 12.080395 C 94.801437 12.080395 95.166489 12.31488 95.459596 12.778522 C 95.766026 13.244829 95.917908 13.804397 95.917908 14.454561 C 95.917908 14.947514 95.885933 15.152688 95.819318 15.07275 C 95.766026 14.992812 95.766026 15.174005 95.819318 15.611001 C 95.819318 15.717585 95.832641 15.850816 95.859287 16.010692 C 95.899256 16.170569 95.917908 16.389067 95.917908 16.668851 C 95.917908 17.374972 95.779349 17.7267 95.499565 17.7267 C 95.233104 17.7267 94.961314 17.766669 94.68153 17.846608 C 94.415069 17.926546 94.281839 18.406175 94.281839 19.282831 C 94.934668 19.282831 95.651447 19.18957 96.437507 19.003048 C 97.234225 18.803202 97.932352 18.677965 98.531889 18.624673 C 100.924707 18.185013 103.32019 17.793315 105.713009 17.446916 C 108.105827 17.087194 110.559931 16.908665 113.075322 16.908665 C 114.378315 16.908665 115.329581 17.180455 115.926453 17.7267 C 116.52599 18.272945 116.744488 18.816525 116.584611 19.36277 C 116.424735 19.909014 115.827862 20.180805 114.788665 20.180805 C 114.684745 19.741144 114.610136 19.535969 114.570167 19.562615 C 114.543521 19.589261 114.290383 19.549292 113.813418 19.442708 C 113.586927 19.389416 113.147266 19.36277 112.497102 19.36277 C 111.35132 19.36277 109.835158 19.488006 107.948615 19.741144 C 106.072731 19.980959 104.124902 20.266072 102.102464 20.599148 C 100.09335 20.918901 98.300068 21.23066 96.717291 21.53709 C 95.147836 21.830197 94.116633 22.030043 93.62368 22.136627 L 91.987611 38.891685 C 91.934319 39.278053 91.920996 39.691067 91.947642 40.128063 C 91.974288 40.554401 91.987611 40.986067 91.987611 41.425728 C 91.987611 41.971972 91.947642 42.323701 91.867703 42.483577 C 91.787765 42.643454 91.750461 43.027157 91.750461 43.640017 C 91.750461 44.836426 91.774442 46.214029 91.827734 47.77016 C 91.881026 49.312968 91.85438 50.522701 91.750461 51.399357 C 91.697168 51.892309 91.649205 52.862227 91.609236 54.311774 C 91.58259 55.747998 91.555944 57.418707 91.529298 59.318573 C 91.502652 61.221104 91.489329 63.142286 91.489329 65.084786 C 91.489329 67.013962 91.489329 68.769939 91.489329 70.352717 C 91.489329 71.932829 91.515975 73.078611 91.569267 73.782068 C 91.569267 74.381605 91.635882 75.292901 91.769113 76.515956 C 91.915666 77.739011 91.947642 78.842159 91.867703 79.828064 C 91.787765 80.811305 91.390738 81.304257 90.671294 81.304257 C 89.648085 81.304257 89.021902 80.731366 88.798074 79.588249 C 88.584906 78.445132 88.478321 77.379289 88.478321 76.396049 C 88.318445 74.440226 88.21719 72.153992 88.177221 69.534682 C 88.150575 66.912707 88.150575 64.301391 88.177221 61.692739 C 88.21719 59.073429 88.238507 56.787195 88.238507 54.831373 L 88.478321 50.981013 C 88.478321 50.224265 88.478321 49.051837 88.478321 47.469059 C 88.478321 45.886282 88.504968 44.212908 88.55826 42.443608 C 88.611552 40.674308 88.664844 39.059555 88.718136 37.596685 C 88.771428 36.120492 88.848702 35.081295 88.955286 34.484423 C 89.075194 33.938178 89.149803 33.285349 89.176449 32.5286 C 89.203095 31.758528 89.243064 31.097705 89.296356 30.554125 L 90.034453 22.951997 C 89.807961 23.005289 89.328332 23.119868 88.598229 23.293067 C 87.865462 23.452944 87.281912 23.586174 86.842252 23.690094 C 84.16965 24.342923 81.622284 25.04105 79.200155 25.787141 C 76.78069 26.517243 74.286617 27.375247 71.720599 28.358488 C 71.227646 28.571656 70.782657 28.806142 70.382966 29.056615 C 69.972616 29.29643 69.519632 29.522922 69.02668 29.73609 C 68.376515 30.015874 67.958172 30.207726 67.771649 30.31431 C 67.571804 30.420895 67.470549 30.559454 67.470549 30.732654 C 67.470549 30.89253 67.337318 31.244259 67.073522 31.790503 C 66.84703 31.843796 66.625868 31.883765 66.415364 31.910411 C 66.202195 31.937057 65.954386 31.95038 65.677267 31.95038 C 65.237607 31.95038 64.845909 31.857119 64.49951 31.670596 C 64.139788 31.47075 63.961259 31.097705 63.961259 30.554125 Z M 103.181631 67.320392 C 102.091806 67.320392 101.119224 66.965999 100.269214 66.262543 C 99.432527 65.556421 98.793021 64.826319 98.35336 64.066905 C 97.383443 62.204344 96.823875 60.011371 96.677322 57.485323 C 96.546756 54.943286 96.698638 52.643729 97.138299 50.581322 C 97.244883 49.98445 97.388772 49.265006 97.575295 48.428318 C 97.77514 47.575644 98.060253 46.824224 98.433299 46.17406 C 98.819667 45.507908 99.285973 45.174832 99.829553 45.174832 C 101.079255 45.174832 101.692115 45.601169 101.665469 46.453844 C 101.638822 47.290531 101.407002 48.601518 100.967341 50.381476 C 100.541004 52.150776 100.327835 54.418358 100.327835 57.184222 C 100.327835 58.01025 100.434419 58.993491 100.647588 60.136608 C 100.860757 61.28239 101.199162 62.292276 101.665469 63.168932 C 102.131775 64.03493 102.715324 64.466597 103.421446 64.466597 C 104.298102 64.466597 105.29733 64.088222 106.413801 63.328809 C 107.530272 62.558737 108.561475 61.700733 109.504747 60.754797 C 110.464006 59.798203 111.135487 59.073429 111.519191 58.580477 C 111.625775 58.476557 111.926876 58.108841 112.417164 57.485323 C 112.910116 56.85914 113.49633 56.155683 114.173141 55.369623 C 114.852616 54.572906 115.516103 53.874778 116.168932 53.275241 C 116.819097 52.675704 117.338695 52.377268 117.725064 52.377268 C 118.108767 52.377268 118.303284 52.70235 118.303284 53.355179 C 118.303284 53.741548 118.044817 54.325097 117.525218 55.111156 C 117.005619 55.894551 116.38743 56.725909 115.67065 57.60523 C 114.964529 58.468563 114.274396 59.286598 113.59492 60.05667 C 112.915445 60.816083 112.411834 61.362328 112.078758 61.692739 C 111.425929 62.345568 110.650528 63.123634 109.744561 64.026936 C 108.854582 64.91958 107.863348 65.689652 106.773523 66.342481 C 105.681033 66.992645 104.484624 67.320392 103.181631 67.320392 Z M 100.56765 34.881449 C 100.56765 33.964824 100.815458 33.168106 101.305746 32.488631 C 101.798699 31.795833 102.344944 31.452098 102.941816 31.452098 C 103.594645 31.452098 104.138225 31.862448 104.577886 32.688476 C 105.337299 34.204639 105.43056 35.387725 104.857669 36.237735 C 104.284779 37.077087 103.586651 37.49543 102.763287 37.49543 C 102.230366 37.49543 101.732084 37.282261 101.265777 36.858589 C 100.802135 36.418928 100.56765 35.76077 100.56765 34.881449 Z M 117.879611 61.034581 C 117.879611 61.527534 117.994189 61.772677 118.218016 61.772677 C 118.591061 61.772677 119.089343 61.229097 119.715526 60.136608 C 120.355032 59.046783 121.026513 57.685168 121.72997 56.049099 C 122.436091 54.413029 123.112902 52.763636 123.765731 51.100921 C 124.415895 49.438205 124.96214 47.983329 125.4018 46.730963 C 125.838796 45.481262 126.059959 44.751159 126.059959 44.53799 C 125.127346 44.644575 124.402572 44.929688 123.885638 45.395994 C 123.379363 45.848978 122.907727 46.373905 122.468067 46.970778 C 121.045166 48.726755 119.920701 50.8691 119.097337 53.395149 C 118.284631 55.921197 117.879611 58.468563 117.879611 61.034581 Z M 127.195082 42.323701 C 127.195082 41.724164 127.288343 41.20723 127.474866 40.767569 C 127.674711 40.327909 127.85324 39.837621 128.013117 39.291376 L 129.729125 30.074496 C 129.902324 29.477623 130.107499 28.57965 130.347314 27.380576 C 130.587128 26.170844 130.925534 25.022398 131.365194 23.929909 C 131.804854 22.840084 132.348435 22.240547 133.001264 22.136627 C 133.107848 22.136627 133.187786 22.123304 133.241078 22.096658 C 133.307694 22.070012 133.366315 22.056689 133.419607 22.056689 C 134.179021 22.056689 134.610687 22.480362 134.717272 23.333036 C 134.823856 24.169723 134.749247 25.187604 134.496109 26.384013 C 134.258959 27.580422 133.957858 28.726204 133.600801 29.816029 C 133.254401 30.905853 133.02791 31.697242 132.921325 32.190195 C 131.618332 36.605451 130.773651 41.127291 130.387283 45.755716 C 130.003579 50.381476 129.849032 55.044541 129.92897 59.739581 C 130.022231 64.418634 130.094176 69.047058 130.147468 73.622191 C 130.20076 75.364845 130.347314 76.769094 130.587128 77.832272 C 130.840266 78.895451 130.938857 79.641542 130.885565 80.065214 C 130.832272 80.504875 130.315338 80.726037 129.329433 80.726037 C 128.732561 80.726037 128.252931 80.051891 127.893209 78.708929 C 127.536152 77.379289 127.27502 75.636635 127.115144 73.483632 C 126.957932 71.341286 126.877994 69.047058 126.877994 66.600948 C 126.877994 64.141514 126.90464 61.740702 126.957932 59.398511 C 127.011224 57.058985 127.064516 55.044541 127.115144 53.355179 C 127.168436 51.665818 127.195082 50.549347 127.195082 50.003102 C 126.984578 50.216271 126.851347 50.35483 126.798055 50.421446 C 126.744763 50.474738 126.664825 50.687906 126.55824 51.060952 L 123.685793 58.002257 C 123.312747 58.828285 122.881081 59.758234 122.388128 60.794766 C 121.895176 61.833963 121.276987 62.731937 120.533561 63.488685 C 119.800794 64.248099 118.918808 64.626473 117.879611 64.626473 C 116.736494 64.626473 115.958428 64.080228 115.545414 62.990404 C 115.148387 61.900579 115.02848 60.49633 115.188356 58.780322 C 115.345568 57.064314 115.73993 55.25771 116.363449 53.355179 C 117.002955 51.452649 117.794343 49.64338 118.737615 47.930037 C 119.694209 46.214029 120.760053 44.80978 121.929816 43.719955 C 123.099579 42.630131 124.309311 42.083886 125.561677 42.083886 C 125.998673 42.083886 126.233158 42.123855 126.259804 42.203793 C 126.28645 42.283731 126.59821 42.323701 127.195082 42.323701 Z M 133.408949 57.024345 C 133.408949 55.827936 133.582148 54.498296 133.928547 53.035426 C 134.285605 51.559233 134.751911 50.131003 135.324802 48.748071 C 135.895028 47.351817 136.513218 46.219358 137.17937 45.356025 C 137.776242 44.689873 138.375779 44.359461 138.975316 44.359461 C 139.452281 44.359461 139.939904 44.498021 140.430192 44.777805 C 140.483484 45.044266 140.550099 45.236118 140.630038 45.356025 C 140.723299 45.462609 140.768597 45.702424 140.768597 46.072805 C 140.768597 46.13942 140.523453 46.664348 140.030501 47.650253 C 139.540213 48.62017 139.007291 49.843226 138.437065 51.319419 C 137.864174 52.782289 137.397868 54.333091 137.038145 55.96916 C 136.694411 57.60523 136.681088 59.100075 137.000841 60.456361 C 137.651005 60.243192 138.223896 59.824849 138.714184 59.20133 C 139.207137 58.575147 139.646797 57.988934 140.030501 57.445353 L 144.938709 50.242917 C 145.484954 49.486168 145.943267 48.820016 146.316312 48.247125 C 146.700016 47.676899 147.272906 47.389121 148.03232 47.389121 C 148.802392 47.389121 149.255375 47.868751 149.388606 48.82801 C 149.521836 49.771281 149.548482 50.847783 149.468544 52.057515 C 149.388606 53.256589 149.375282 54.20519 149.428575 54.911311 C 149.692371 56.867133 150.113379 58.242071 150.683605 59.041454 C 151.256496 59.824849 151.927977 60.216546 152.698049 60.216546 C 153.617339 60.216546 154.59525 59.838172 155.631783 59.081423 C 156.668316 58.308687 157.707513 57.424037 158.744046 56.427473 C 159.780578 55.417586 160.691874 54.532936 161.477934 53.773523 C 162.261329 53.003451 162.847543 52.617083 163.231246 52.617083 C 163.564322 52.617083 163.862758 52.689027 164.129219 52.835581 C 164.409003 52.968811 164.547563 53.248595 164.547563 53.674932 C 164.547563 54.111928 164.217151 54.706136 163.550999 55.449562 C 162.900835 56.182329 162.194714 56.885786 161.437965 57.565261 C 160.678551 58.242071 160.132307 58.748347 159.801895 59.081423 C 158.709406 60.117956 157.52632 61.002606 156.249972 61.732708 C 154.973625 62.465476 153.702607 62.830527 152.439582 62.830527 C 151.083296 62.830527 150.020118 62.465476 149.247381 61.732708 C 148.490632 61.002606 147.931065 60.077987 147.571343 58.961516 C 147.227608 57.84238 147.001116 56.672617 146.894532 55.449562 C 146.787948 54.213183 146.734656 53.110035 146.734656 52.137453 C 146.401579 52.350622 146.001888 52.830252 145.538246 53.573677 C 145.085263 54.306445 144.720212 54.884665 144.440428 55.311002 C 144.107352 55.854582 143.64371 56.606002 143.044173 57.565261 C 142.444636 58.521855 141.781148 59.47845 141.048381 60.437709 C 140.318278 61.38098 139.580182 62.180363 138.834092 62.830527 C 138.103989 63.483356 137.411191 63.808438 136.761026 63.808438 C 135.511325 63.808438 134.653321 63.443387 134.187014 62.71062 C 133.720708 61.980517 133.475564 61.082544 133.448918 60.016701 C 133.422272 58.953522 133.408949 57.956958 133.408949 57.024345 Z M 162.0828 66.680886 C 161.536555 66.680886 161.211473 66.342481 161.104889 65.663006 C 160.998304 64.972872 160.971658 64.248099 161.024951 63.488685 C 161.078243 62.731937 161.104889 62.26563 161.104889 62.09243 C 161.051597 61.122513 161.038274 60.131279 161.06492 59.121392 C 161.091566 58.108841 161.078243 57.085631 161.024951 56.049099 C 161.024951 55.66273 161.038274 54.943286 161.06492 53.89343 C 161.091566 52.830252 161.171504 51.700458 161.304734 50.501384 C 161.451288 49.291652 161.656463 48.255119 161.922924 47.389121 C 162.202707 46.512465 162.554436 46.072805 162.980773 46.072805 C 164.070598 46.072805 164.627501 46.432527 164.654147 47.151971 C 164.680793 47.855428 164.640824 48.780047 164.53424 49.923164 C 164.480948 50.309532 164.456966 50.735869 164.456966 51.199511 C 164.456966 51.652495 164.456966 52.097484 164.456966 52.537145 C 164.456966 53.083389 164.43032 53.440447 164.377028 53.613646 C 164.323736 53.773523 164.29709 54.125251 164.29709 54.671496 C 164.893962 54.231836 165.440207 53.728225 165.933159 53.155334 C 166.423447 52.582443 167.294774 52.29733 168.544475 52.29733 C 168.930844 52.29733 169.437119 52.284007 170.060638 52.257361 C 170.686821 52.230715 171.350308 52.217392 172.056429 52.217392 C 173.252839 52.217392 174.36931 52.284007 175.408507 52.417237 C 176.445039 52.550468 176.964638 52.888873 176.964638 53.435118 C 176.964638 53.981362 176.67686 54.33842 176.106634 54.51162 C 175.533743 54.671496 174.835616 54.751434 174.012252 54.751434 C 173.466007 54.751434 172.906439 54.738111 172.336213 54.711465 C 171.763322 54.684819 171.265041 54.671496 170.838703 54.671496 C 169.309218 54.671496 168.286008 54.751434 167.76641 54.911311 C 167.249476 55.071187 166.663262 55.694706 166.010433 56.787195 C 165.626729 57.490652 165.253684 58.255394 164.893962 59.081423 C 164.547563 59.891464 164.29709 60.789437 164.137213 61.772677 C 163.964014 62.478799 163.889405 63.216895 163.916051 63.986967 C 163.95602 64.74638 163.876082 65.383222 163.678901 65.902821 C 163.492378 66.422419 162.959456 66.680886 162.0828 66.680886 Z M 178.011829 52.217392 C 179.051027 51.673812 180.194144 50.922392 181.443845 49.963133 C 182.706869 49.006538 183.391674 47.876745 183.498258 46.573751 C 182.794801 46.677671 182.043382 47.05871 181.243999 47.708874 C 180.460604 48.361703 179.781129 49.0998 179.210903 49.923164 C 178.638012 50.735869 178.238321 51.500612 178.011829 52.217392 Z M 174.342663 54.173214 C 174.342663 52.816929 174.787653 51.346065 175.677632 49.763287 C 176.583599 48.18051 177.70007 46.832218 179.02971 45.715747 C 180.372672 44.596612 181.696983 44.039708 182.999976 44.039708 C 184.795922 44.039708 185.733864 44.724513 185.813803 46.094121 C 185.904399 47.450407 185.326179 48.918606 184.076478 50.501384 C 183.412991 51.207505 182.427085 52.02554 181.124092 52.955488 C 179.821098 53.874778 178.544751 54.386383 177.29505 54.492967 C 177.29505 55.369623 177.321696 56.147689 177.374988 56.827164 C 177.42828 57.503975 177.806654 58.196773 178.510111 58.90023 C 179.216232 59.619674 180.114205 59.976731 181.20403 59.976731 C 182.626931 59.976731 184.097795 59.531742 185.613957 58.641763 C 187.143442 57.73846 188.313205 56.987041 189.123246 56.387504 C 189.456322 56.10772 189.714789 55.889222 189.901312 55.729346 C 190.101158 55.556146 190.335643 55.364294 190.599439 55.151126 C 191.745221 54.285128 192.462001 53.648286 192.755108 53.235272 C 193.061538 52.822258 193.320005 52.550468 193.533173 52.417237 C 193.759665 52.284007 194.276599 52.217392 195.089305 52.217392 C 195.209212 52.816929 195.25451 53.221949 195.227864 53.435118 C 195.201218 53.648286 194.996043 53.973369 194.609675 54.413029 C 193.626435 55.39627 192.382062 56.51274 190.879223 57.762442 C 189.389707 59.014808 187.788278 60.104633 186.07227 61.034581 C 184.356262 61.967194 182.653577 62.430836 180.964215 62.430836 C 180.087559 62.430836 179.256201 62.284282 178.472806 61.99384 C 177.686747 61.68741 176.935327 61.175805 176.218548 60.456361 C 175.245966 59.486443 174.689063 58.481886 174.542509 57.445353 C 174.409279 56.406156 174.342663 55.316331 174.342663 54.173214 Z M 174.342663 54.173214 " stroke="#fffef9" stroke-width="6.128468" stroke-opacity="1" stroke-miterlimit="4"/><g fill="#122620" fill-opacity="1"><g transform="translate(43.592962, 221.077188)"><g><path d="M 32.8125 55.34375 C 34.65625 55.34375 36.710938 54.722656 38.984375 53.484375 C 41.265625 52.242188 43.421875 50.785156 45.453125 49.109375 C 47.492188 47.429688 49.03125 45.875 50.0625 44.4375 C 50.707031 43.632812 51.269531 42.929688 51.75 42.328125 C 52.226562 41.734375 52.742188 41.039062 53.296875 40.25 C 53.703125 39.445312 54.144531 38.707031 54.625 38.03125 C 55.101562 37.351562 55.5 36.613281 55.8125 35.8125 C 57.09375 33.332031 57.929688 31.175781 58.328125 29.34375 C 58.734375 27.507812 58.914062 25.691406 58.875 23.890625 C 58.832031 22.097656 58.691406 20.082031 58.453125 17.84375 C 57.890625 18.007812 57.445312 18.226562 57.125 18.5 C 56.8125 18.78125 56.375 19.125 55.8125 19.53125 C 55.5 19.84375 55.160156 20.117188 54.796875 20.359375 C 54.441406 20.597656 54.0625 20.878906 53.65625 21.203125 L 47.1875 26.953125 C 45.03125 28.953125 43.273438 30.566406 41.921875 31.796875 C 40.566406 33.035156 39.269531 34.332031 38.03125 35.6875 C 36.789062 37.050781 35.253906 38.96875 33.421875 41.4375 C 32.859375 42.15625 32.15625 43.15625 31.3125 44.4375 C 30.476562 45.71875 29.742188 47.078125 29.109375 48.515625 C 28.472656 49.953125 28.15625 51.226562 28.15625 52.34375 C 28.15625 53.78125 28.453125 54.640625 29.046875 54.921875 C 29.648438 55.203125 30.664062 55.34375 32.09375 55.34375 C 32.257812 55.34375 32.398438 55.34375 32.515625 55.34375 C 32.640625 55.34375 32.738281 55.34375 32.8125 55.34375 Z M 0 -14.25 C 0 -18.5625 0.738281 -23.070312 2.21875 -27.78125 C 3.695312 -32.5 5.570312 -37.132812 7.84375 -41.6875 C 10.125 -46.238281 12.421875 -50.3125 14.734375 -53.90625 C 15.773438 -55.820312 17.113281 -57.875 18.75 -60.0625 C 20.382812 -62.257812 22.097656 -64.4375 23.890625 -66.59375 C 25.691406 -68.75 27.351562 -70.628906 28.875 -72.234375 C 31.582031 -74.867188 34.332031 -77.28125 37.125 -79.46875 C 39.925781 -81.664062 42.941406 -83.441406 46.171875 -84.796875 C 49.410156 -86.160156 52.984375 -86.84375 56.890625 -86.84375 C 60.722656 -86.601562 63.859375 -85.144531 66.296875 -82.46875 C 68.734375 -79.789062 70.550781 -76.492188 71.75 -72.578125 C 72.945312 -68.671875 73.546875 -64.640625 73.546875 -60.484375 C 73.546875 -55.773438 73.066406 -50.984375 72.109375 -46.109375 C 71.148438 -41.242188 70.113281 -36.691406 69 -32.453125 C 68.59375 -30.617188 68.171875 -29.003906 67.734375 -27.609375 C 67.296875 -26.210938 66.398438 -25.515625 65.046875 -25.515625 C 64.085938 -25.515625 63.566406 -26.234375 63.484375 -27.671875 C 63.398438 -29.109375 63.535156 -30.84375 63.890625 -32.875 C 64.253906 -34.914062 64.65625 -36.8125 65.09375 -38.5625 C 65.539062 -40.320312 65.84375 -41.484375 66 -42.046875 C 66.5625 -45.472656 67.0625 -49.160156 67.5 -53.109375 C 67.9375 -57.066406 67.992188 -61.003906 67.671875 -64.921875 C 67.359375 -68.835938 66.363281 -72.390625 64.6875 -75.578125 C 63.488281 -77.898438 62.050781 -79.519531 60.375 -80.4375 C 58.695312 -81.351562 56.898438 -81.8125 54.984375 -81.8125 C 53.304688 -81.8125 51.609375 -81.507812 49.890625 -80.90625 C 48.171875 -80.3125 46.515625 -79.578125 44.921875 -78.703125 C 43.796875 -77.984375 42.535156 -77.160156 41.140625 -76.234375 C 39.742188 -75.316406 38.566406 -74.378906 37.609375 -73.421875 C 37.046875 -72.867188 36.503906 -72.410156 35.984375 -72.046875 C 35.472656 -71.691406 34.9375 -71.191406 34.375 -70.546875 L 20.25 -53.65625 C 18.644531 -51.1875 17.382812 -49.128906 16.46875 -47.484375 C 15.550781 -45.847656 14.535156 -43.992188 13.421875 -41.921875 C 12.296875 -40.160156 11.132812 -37.898438 9.9375 -35.140625 C 8.738281 -32.390625 7.703125 -29.597656 6.828125 -26.765625 C 5.953125 -23.929688 5.3125 -21.519531 4.90625 -19.53125 C 4.664062 -17.6875 4.503906 -15.882812 4.421875 -14.125 C 4.347656 -12.375 4.59375 -10.617188 5.15625 -8.859375 C 5.945312 -6.867188 7.421875 -5.453125 9.578125 -4.609375 C 11.734375 -3.773438 14.128906 -3.273438 16.765625 -3.109375 C 19.398438 -2.953125 21.796875 -2.832031 23.953125 -2.75 C 26.828125 -2.59375 29.421875 -2.492188 31.734375 -2.453125 C 34.054688 -2.410156 36.375 -2.269531 38.6875 -2.03125 C 41 -1.789062 43.554688 -1.191406 46.359375 -0.234375 C 47.953125 0.242188 49.726562 1.039062 51.6875 2.15625 C 53.644531 3.269531 55.421875 4.585938 57.015625 6.109375 C 58.609375 7.628906 59.609375 9.226562 60.015625 10.90625 C 61.765625 9.707031 63.796875 8.164062 66.109375 6.28125 C 68.429688 4.40625 70.769531 2.46875 73.125 0.46875 C 75.476562 -1.519531 77.535156 -3.234375 79.296875 -4.671875 L 88.515625 -12.8125 C 89.316406 -13.613281 90.078125 -14.289062 90.796875 -14.84375 C 91.515625 -15.40625 92.269531 -16.085938 93.0625 -16.890625 C 94.425781 -18.328125 95.445312 -19.285156 96.125 -19.765625 C 96.800781 -20.242188 97.378906 -20.484375 97.859375 -20.484375 C 98.179688 -20.484375 98.460938 -20.441406 98.703125 -20.359375 C 98.941406 -20.285156 99.21875 -20.207031 99.53125 -20.125 C 99.53125 -19.320312 99.609375 -18.84375 99.765625 -18.6875 C 99.929688 -18.53125 99.992188 -18.390625 99.953125 -18.265625 C 99.910156 -18.148438 99.628906 -17.867188 99.109375 -17.421875 C 98.597656 -16.984375 97.660156 -16.085938 96.296875 -14.734375 C 93.660156 -12.179688 91.242188 -9.945312 89.046875 -8.03125 C 86.859375 -6.113281 84.523438 -3.957031 82.046875 -1.5625 L 74.390625 4.671875 C 73.742188 5.148438 72.800781 5.890625 71.5625 6.890625 C 70.332031 7.890625 69.015625 8.945312 67.609375 10.0625 C 66.210938 11.175781 64.972656 12.191406 63.890625 13.109375 C 62.816406 14.035156 62.160156 14.695312 61.921875 15.09375 C 62.242188 16.375 62.523438 17.671875 62.765625 18.984375 C 63.003906 20.304688 63.125 21.722656 63.125 23.234375 C 63.125 27.472656 62.144531 31.707031 60.1875 35.9375 C 58.226562 40.164062 55.710938 44.054688 52.640625 47.609375 C 49.566406 51.160156 46.3125 53.992188 42.875 56.109375 C 39.445312 58.234375 36.253906 59.296875 33.296875 59.296875 C 32.179688 59.296875 30.925781 59.175781 29.53125 58.9375 C 28.132812 58.695312 26.914062 58.195312 25.875 57.4375 C 24.832031 56.675781 24.3125 55.457031 24.3125 53.78125 C 24.3125 50.820312 24.8125 48.265625 25.8125 46.109375 C 26.8125 43.953125 28.191406 41.675781 29.953125 39.28125 C 32.578125 35.613281 35.328125 32.421875 38.203125 29.703125 C 41.078125 26.992188 44.113281 24.238281 47.3125 21.4375 L 56.890625 13.53125 C 54.734375 9.457031 52.019531 6.640625 48.75 5.078125 C 45.476562 3.523438 41.484375 2.472656 36.765625 1.921875 L 27.078125 1.203125 C 23.316406 1.117188 19.816406 1.035156 16.578125 0.953125 C 13.347656 0.878906 10.378906 0.320312 7.671875 -0.71875 C 5.109375 -1.675781 3.1875 -3.3125 1.90625 -5.625 C 0.632812 -7.945312 0 -10.820312 0 -14.25 Z M 0 -14.25 "/></g></g></g><g fill="#122620" fill-opacity="1"><g transform="translate(138.933741, 221.077188)"><g><path d="M 5.515625 -21.6875 C 7.023438 -22.476562 8.695312 -23.570312 10.53125 -24.96875 C 12.375 -26.375 13.375 -28.035156 13.53125 -29.953125 C 12.5 -29.785156 11.398438 -29.222656 10.234375 -28.265625 C 9.078125 -27.304688 8.078125 -26.226562 7.234375 -25.03125 C 6.398438 -23.832031 5.828125 -22.71875 5.515625 -21.6875 Z M 0.125 -18.8125 C 0.125 -20.800781 0.78125 -22.953125 2.09375 -25.265625 C 3.414062 -27.585938 5.050781 -29.566406 7 -31.203125 C 8.957031 -32.835938 10.894531 -33.65625 12.8125 -33.65625 C 15.445312 -33.65625 16.820312 -32.65625 16.9375 -30.65625 C 17.0625 -28.664062 16.207031 -26.515625 14.375 -24.203125 C 13.414062 -23.160156 11.976562 -21.957031 10.0625 -20.59375 C 8.144531 -19.238281 6.269531 -18.484375 4.4375 -18.328125 C 4.4375 -17.046875 4.472656 -15.90625 4.546875 -14.90625 C 4.628906 -13.914062 5.191406 -12.898438 6.234375 -11.859375 C 7.265625 -10.816406 8.582031 -10.296875 10.1875 -10.296875 C 12.257812 -10.296875 14.410156 -10.953125 16.640625 -12.265625 C 18.878906 -13.585938 20.597656 -14.691406 21.796875 -15.578125 C 22.273438 -15.972656 22.65625 -16.289062 22.9375 -16.53125 C 23.21875 -16.769531 23.554688 -17.050781 23.953125 -17.375 C 25.628906 -18.644531 26.6875 -19.578125 27.125 -20.171875 C 27.570312 -20.773438 27.953125 -21.175781 28.265625 -21.375 C 28.585938 -21.582031 29.347656 -21.6875 30.546875 -21.6875 C 30.703125 -20.800781 30.757812 -20.195312 30.71875 -19.875 C 30.675781 -19.5625 30.378906 -19.085938 29.828125 -18.453125 C 28.390625 -17.015625 26.570312 -15.375 24.375 -13.53125 C 22.175781 -11.695312 19.816406 -10.097656 17.296875 -8.734375 C 14.785156 -7.378906 12.296875 -6.703125 9.828125 -6.703125 C 8.546875 -6.703125 7.328125 -6.921875 6.171875 -7.359375 C 5.015625 -7.804688 3.914062 -8.546875 2.875 -9.578125 C 1.4375 -11.015625 0.617188 -12.492188 0.421875 -14.015625 C 0.222656 -15.535156 0.125 -17.132812 0.125 -18.8125 Z M 0.125 -18.8125 "/></g></g></g><g fill="#122620" fill-opacity="1"><g transform="translate(164.924894, 221.077188)"><g><path d="M -33.65625 -53.421875 C -33.65625 -54.460938 -32.695312 -55.5625 -30.78125 -56.71875 C -28.863281 -57.875 -26.445312 -59.007812 -23.53125 -60.125 C -20.625 -61.25 -17.550781 -62.304688 -14.3125 -63.296875 C -11.082031 -64.296875 -8.109375 -65.15625 -5.390625 -65.875 C -2.671875 -66.59375 -0.632812 -67.15625 0.71875 -67.5625 C 2.394531 -68.039062 3.570312 -68.316406 4.25 -68.390625 C 4.925781 -68.472656 5.363281 -68.734375 5.5625 -69.171875 C 5.769531 -69.609375 5.992188 -70.507812 6.234375 -71.875 C 6.867188 -75.144531 7.601562 -77.398438 8.4375 -78.640625 C 9.28125 -79.878906 10.101562 -80.5 10.90625 -80.5 C 11.539062 -80.5 12.078125 -80.15625 12.515625 -79.46875 C 12.953125 -78.789062 13.171875 -77.972656 13.171875 -77.015625 C 13.171875 -76.296875 13.128906 -75.992188 13.046875 -76.109375 C 12.972656 -76.234375 12.976562 -75.976562 13.0625 -75.34375 C 13.0625 -75.1875 13.078125 -74.988281 13.109375 -74.75 C 13.148438 -74.507812 13.171875 -74.1875 13.171875 -73.78125 C 13.171875 -72.75 12.972656 -72.234375 12.578125 -72.234375 C 12.179688 -72.234375 11.78125 -72.171875 11.375 -72.046875 C 10.976562 -71.929688 10.78125 -71.234375 10.78125 -69.953125 C 11.738281 -69.953125 12.796875 -70.09375 13.953125 -70.375 C 15.109375 -70.65625 16.128906 -70.832031 17.015625 -70.90625 C 20.523438 -71.550781 24.035156 -72.128906 27.546875 -72.640625 C 31.054688 -73.160156 34.648438 -73.421875 38.328125 -73.421875 C 40.242188 -73.421875 41.640625 -73.019531 42.515625 -72.21875 C 43.398438 -71.425781 43.722656 -70.628906 43.484375 -69.828125 C 43.242188 -69.035156 42.363281 -68.640625 40.84375 -68.640625 C 40.6875 -69.273438 40.585938 -69.570312 40.546875 -69.53125 C 40.503906 -69.488281 40.125 -69.550781 39.40625 -69.71875 C 39.082031 -69.789062 38.441406 -69.828125 37.484375 -69.828125 C 35.804688 -69.828125 33.59375 -69.644531 30.84375 -69.28125 C 28.09375 -68.925781 25.238281 -68.507812 22.28125 -68.03125 C 19.320312 -67.550781 16.6875 -67.09375 14.375 -66.65625 C 12.0625 -66.21875 10.546875 -65.921875 9.828125 -65.765625 L 7.421875 -41.203125 C 7.347656 -40.640625 7.328125 -40.039062 7.359375 -39.40625 C 7.398438 -38.769531 7.421875 -38.128906 7.421875 -37.484375 C 7.421875 -36.691406 7.359375 -36.175781 7.234375 -35.9375 C 7.117188 -35.695312 7.0625 -35.132812 7.0625 -34.25 C 7.0625 -32.5 7.101562 -30.484375 7.1875 -28.203125 C 7.269531 -25.929688 7.226562 -24.15625 7.0625 -22.875 C 6.988281 -22.15625 6.929688 -20.738281 6.890625 -18.625 C 6.847656 -16.507812 6.804688 -14.050781 6.765625 -11.25 C 6.722656 -8.457031 6.703125 -5.644531 6.703125 -2.8125 C 6.703125 0.0195312 6.703125 2.59375 6.703125 4.90625 C 6.703125 7.226562 6.742188 8.90625 6.828125 9.9375 C 6.828125 10.820312 6.925781 12.160156 7.125 13.953125 C 7.320312 15.753906 7.359375 17.375 7.234375 18.8125 C 7.117188 20.25 6.546875 20.96875 5.515625 20.96875 C 3.992188 20.96875 3.070312 20.128906 2.75 18.453125 C 2.4375 16.773438 2.28125 15.21875 2.28125 13.78125 C 2.039062 10.90625 1.898438 7.550781 1.859375 3.71875 C 1.816406 -0.113281 1.816406 -3.945312 1.859375 -7.78125 C 1.898438 -11.613281 1.921875 -14.96875 1.921875 -17.84375 L 2.28125 -23.484375 C 2.28125 -24.597656 2.28125 -26.3125 2.28125 -28.625 C 2.28125 -30.9375 2.316406 -33.390625 2.390625 -35.984375 C 2.472656 -38.585938 2.550781 -40.96875 2.625 -43.125 C 2.707031 -45.28125 2.832031 -46.796875 3 -47.671875 C 3.15625 -48.472656 3.253906 -49.429688 3.296875 -50.546875 C 3.335938 -51.660156 3.394531 -52.617188 3.46875 -53.421875 L 4.546875 -64.5625 C 4.234375 -64.476562 3.535156 -64.316406 2.453125 -64.078125 C 1.378906 -63.835938 0.519531 -63.640625 -0.125 -63.484375 C -4.03125 -62.523438 -7.757812 -61.503906 -11.3125 -60.421875 C -14.875 -59.347656 -18.53125 -58.09375 -22.28125 -56.65625 C -23 -56.332031 -23.65625 -55.988281 -24.25 -55.625 C -24.851562 -55.269531 -25.515625 -54.9375 -26.234375 -54.625 C -27.191406 -54.21875 -27.8125 -53.9375 -28.09375 -53.78125 C -28.375 -53.625 -28.515625 -53.425781 -28.515625 -53.1875 C -28.515625 -52.945312 -28.710938 -52.425781 -29.109375 -51.625 C -29.429688 -51.539062 -29.75 -51.476562 -30.0625 -51.4375 C -30.382812 -51.40625 -30.742188 -51.390625 -31.140625 -51.390625 C -31.773438 -51.390625 -32.351562 -51.523438 -32.875 -51.796875 C -33.394531 -52.078125 -33.65625 -52.617188 -33.65625 -53.421875 Z M -33.65625 -53.421875 "/></g></g></g><g fill="#122620" fill-opacity="1"><g transform="translate(178.818777, 221.077188)"><g><path d="M 9.9375 0.484375 C 8.34375 0.484375 6.925781 -0.0351562 5.6875 -1.078125 C 4.445312 -2.117188 3.507812 -3.195312 2.875 -4.3125 C 1.4375 -7.03125 0.617188 -10.242188 0.421875 -13.953125 C 0.222656 -17.671875 0.441406 -21.046875 1.078125 -24.078125 C 1.234375 -24.953125 1.453125 -26.007812 1.734375 -27.25 C 2.015625 -28.488281 2.429688 -29.585938 2.984375 -30.546875 C 3.546875 -31.503906 4.226562 -31.984375 5.03125 -31.984375 C 6.863281 -31.984375 7.757812 -31.363281 7.71875 -30.125 C 7.6875 -28.882812 7.347656 -26.96875 6.703125 -24.375 C 6.066406 -21.78125 5.75 -18.445312 5.75 -14.375 C 5.75 -13.175781 5.90625 -11.738281 6.21875 -10.0625 C 6.539062 -8.382812 7.039062 -6.90625 7.71875 -5.625 C 8.40625 -4.351562 9.265625 -3.71875 10.296875 -3.71875 C 11.578125 -3.71875 13.035156 -4.273438 14.671875 -5.390625 C 16.304688 -6.503906 17.820312 -7.757812 19.21875 -9.15625 C 20.625 -10.5625 21.601562 -11.625 22.15625 -12.34375 C 22.320312 -12.5 22.765625 -13.035156 23.484375 -13.953125 C 24.203125 -14.867188 25.054688 -15.90625 26.046875 -17.0625 C 27.046875 -18.226562 28.023438 -19.25 28.984375 -20.125 C 29.941406 -21 30.703125 -21.4375 31.265625 -21.4375 C 31.816406 -21.4375 32.09375 -20.957031 32.09375 -20 C 32.09375 -19.445312 31.710938 -18.585938 30.953125 -17.421875 C 30.203125 -16.265625 29.304688 -15.046875 28.265625 -13.765625 C 27.234375 -12.492188 26.21875 -11.296875 25.21875 -10.171875 C 24.21875 -9.054688 23.476562 -8.257812 23 -7.78125 C 22.039062 -6.820312 20.898438 -5.679688 19.578125 -4.359375 C 18.265625 -3.046875 16.804688 -1.910156 15.203125 -0.953125 C 13.609375 0.00390625 11.851562 0.484375 9.9375 0.484375 Z M 6.109375 -47.078125 C 6.109375 -48.429688 6.46875 -49.609375 7.1875 -50.609375 C 7.90625 -51.609375 8.703125 -52.109375 9.578125 -52.109375 C 10.535156 -52.109375 11.335938 -51.507812 11.984375 -50.3125 C 13.097656 -48.070312 13.234375 -46.332031 12.390625 -45.09375 C 11.554688 -43.851562 10.539062 -43.234375 9.34375 -43.234375 C 8.539062 -43.234375 7.800781 -43.550781 7.125 -44.1875 C 6.445312 -44.832031 6.109375 -45.796875 6.109375 -47.078125 Z M 6.109375 -47.078125 "/></g></g></g><g fill="#122620" fill-opacity="1"><g transform="translate(206.127441, 221.077188)"><g><path d="M 4.1875 -8.75 C 4.1875 -8.03125 4.347656 -7.671875 4.671875 -7.671875 C 5.234375 -7.671875 5.972656 -8.46875 6.890625 -10.0625 C 7.804688 -11.65625 8.78125 -13.648438 9.8125 -16.046875 C 10.851562 -18.441406 11.851562 -20.859375 12.8125 -23.296875 C 13.769531 -25.734375 14.566406 -27.867188 15.203125 -29.703125 C 15.847656 -31.535156 16.171875 -32.613281 16.171875 -32.9375 C 14.816406 -32.78125 13.757812 -32.359375 13 -31.671875 C 12.238281 -30.992188 11.539062 -30.21875 10.90625 -29.34375 C 8.820312 -26.789062 7.179688 -23.65625 5.984375 -19.9375 C 4.785156 -16.226562 4.1875 -12.5 4.1875 -8.75 Z M 17.84375 -36.171875 C 17.84375 -37.046875 17.984375 -37.800781 18.265625 -38.4375 C 18.546875 -39.082031 18.804688 -39.804688 19.046875 -40.609375 L 21.5625 -54.140625 C 21.800781 -55.015625 22.097656 -56.332031 22.453125 -58.09375 C 22.816406 -59.851562 23.316406 -61.53125 23.953125 -63.125 C 24.597656 -64.71875 25.398438 -65.597656 26.359375 -65.765625 C 26.515625 -65.765625 26.628906 -65.78125 26.703125 -65.8125 C 26.785156 -65.851562 26.867188 -65.875 26.953125 -65.875 C 28.066406 -65.875 28.703125 -65.253906 28.859375 -64.015625 C 29.023438 -62.785156 28.925781 -61.289062 28.5625 -59.53125 C 28.207031 -57.769531 27.769531 -56.09375 27.25 -54.5 C 26.726562 -52.90625 26.390625 -51.75 26.234375 -51.03125 C 24.316406 -44.5625 23.078125 -37.929688 22.515625 -31.140625 C 21.960938 -24.359375 21.742188 -17.53125 21.859375 -10.65625 C 21.984375 -3.789062 22.082031 2.992188 22.15625 9.703125 C 22.238281 12.253906 22.457031 14.304688 22.8125 15.859375 C 23.175781 17.421875 23.316406 18.519531 23.234375 19.15625 C 23.160156 19.800781 22.40625 20.125 20.96875 20.125 C 20.082031 20.125 19.378906 19.144531 18.859375 17.1875 C 18.347656 15.226562 17.972656 12.671875 17.734375 9.515625 C 17.492188 6.367188 17.375 3 17.375 -0.59375 C 17.375 -4.1875 17.410156 -7.703125 17.484375 -11.140625 C 17.566406 -14.578125 17.644531 -17.53125 17.71875 -20 C 17.800781 -22.476562 17.84375 -24.117188 17.84375 -24.921875 C 17.53125 -24.597656 17.332031 -24.394531 17.25 -24.3125 C 17.164062 -24.238281 17.046875 -23.921875 16.890625 -23.359375 L 12.703125 -13.171875 C 12.140625 -11.972656 11.5 -10.613281 10.78125 -9.09375 C 10.0625 -7.582031 9.160156 -6.265625 8.078125 -5.140625 C 7.003906 -4.023438 5.707031 -3.46875 4.1875 -3.46875 C 2.507812 -3.46875 1.367188 -4.265625 0.765625 -5.859375 C 0.171875 -7.460938 -0.00390625 -9.519531 0.234375 -12.03125 C 0.472656 -14.550781 1.050781 -17.207031 1.96875 -20 C 2.894531 -22.800781 4.054688 -25.457031 5.453125 -27.96875 C 6.847656 -30.476562 8.40625 -32.53125 10.125 -34.125 C 11.84375 -35.726562 13.617188 -36.53125 15.453125 -36.53125 C 16.085938 -36.53125 16.425781 -36.46875 16.46875 -36.34375 C 16.507812 -36.226562 16.96875 -36.171875 17.84375 -36.171875 Z M 17.84375 -36.171875 "/></g></g></g><g fill="#122620" fill-opacity="1"><g transform="translate(232.957008, 221.077188)"><g><path d="M 0.125 -14.609375 C 0.125 -16.367188 0.378906 -18.328125 0.890625 -20.484375 C 1.410156 -22.640625 2.085938 -24.734375 2.921875 -26.765625 C 3.765625 -28.804688 4.664062 -30.460938 5.625 -31.734375 C 6.507812 -32.691406 7.390625 -33.171875 8.265625 -33.171875 C 8.984375 -33.171875 9.703125 -32.972656 10.421875 -32.578125 C 10.503906 -32.179688 10.601562 -31.898438 10.71875 -31.734375 C 10.84375 -31.578125 10.90625 -31.21875 10.90625 -30.65625 C 10.90625 -30.582031 10.546875 -29.828125 9.828125 -28.390625 C 9.109375 -26.953125 8.328125 -25.15625 7.484375 -23 C 6.648438 -20.84375 5.972656 -18.566406 5.453125 -16.171875 C 4.929688 -13.773438 4.910156 -11.578125 5.390625 -9.578125 C 6.347656 -9.898438 7.1875 -10.519531 7.90625 -11.4375 C 8.625 -12.351562 9.265625 -13.210938 9.828125 -14.015625 L 17.015625 -24.5625 C 17.804688 -25.675781 18.484375 -26.648438 19.046875 -27.484375 C 19.609375 -28.328125 20.445312 -28.75 21.5625 -28.75 C 22.675781 -28.75 23.332031 -28.050781 23.53125 -26.65625 C 23.738281 -25.257812 23.78125 -23.679688 23.65625 -21.921875 C 23.539062 -20.160156 23.519531 -18.765625 23.59375 -17.734375 C 24 -14.859375 24.617188 -12.835938 25.453125 -11.671875 C 26.296875 -10.515625 27.273438 -9.9375 28.390625 -9.9375 C 29.742188 -9.9375 31.175781 -10.492188 32.6875 -11.609375 C 34.207031 -12.734375 35.726562 -14.035156 37.25 -15.515625 C 38.769531 -16.992188 40.109375 -18.289062 41.265625 -19.40625 C 42.421875 -20.519531 43.28125 -21.078125 43.84375 -21.078125 C 44.320312 -21.078125 44.757812 -20.976562 45.15625 -20.78125 C 45.550781 -20.582031 45.75 -20.164062 45.75 -19.53125 C 45.75 -18.882812 45.269531 -18.019531 44.3125 -16.9375 C 43.351562 -15.863281 42.316406 -14.828125 41.203125 -13.828125 C 40.085938 -12.835938 39.289062 -12.101562 38.8125 -11.625 C 37.207031 -10.101562 35.46875 -8.800781 33.59375 -7.71875 C 31.71875 -6.644531 29.863281 -6.109375 28.03125 -6.109375 C 26.03125 -6.109375 24.472656 -6.644531 23.359375 -7.71875 C 22.242188 -8.800781 21.425781 -10.160156 20.90625 -11.796875 C 20.382812 -13.429688 20.039062 -15.144531 19.875 -16.9375 C 19.71875 -18.738281 19.640625 -20.359375 19.640625 -21.796875 C 19.160156 -21.484375 18.582031 -20.785156 17.90625 -19.703125 C 17.226562 -18.628906 16.691406 -17.769531 16.296875 -17.125 C 15.816406 -16.332031 15.132812 -15.234375 14.25 -13.828125 C 13.375 -12.429688 12.394531 -11.035156 11.3125 -9.640625 C 10.238281 -8.242188 9.160156 -7.066406 8.078125 -6.109375 C 7.003906 -5.148438 5.988281 -4.671875 5.03125 -4.671875 C 3.195312 -4.671875 1.9375 -5.207031 1.25 -6.28125 C 0.570312 -7.363281 0.210938 -8.679688 0.171875 -10.234375 C 0.140625 -11.796875 0.125 -13.253906 0.125 -14.609375 Z M 0.125 -14.609375 "/></g></g></g><g fill="#122620" fill-opacity="1"><g transform="translate(273.440907, 221.077188)"><g><path d="M 1.671875 -0.484375 C 0.878906 -0.484375 0.398438 -0.976562 0.234375 -1.96875 C 0.078125 -2.96875 0.0351562 -4.023438 0.109375 -5.140625 C 0.191406 -6.265625 0.234375 -6.945312 0.234375 -7.1875 C 0.160156 -8.625 0.140625 -10.082031 0.171875 -11.5625 C 0.210938 -13.039062 0.195312 -14.535156 0.125 -16.046875 C 0.125 -16.609375 0.140625 -17.664062 0.171875 -19.21875 C 0.210938 -20.78125 0.332031 -22.4375 0.53125 -24.1875 C 0.738281 -25.945312 1.039062 -27.460938 1.4375 -28.734375 C 1.832031 -30.015625 2.351562 -30.65625 3 -30.65625 C 4.59375 -30.65625 5.410156 -30.132812 5.453125 -29.09375 C 5.492188 -28.0625 5.429688 -26.707031 5.265625 -25.03125 C 5.191406 -24.476562 5.15625 -23.859375 5.15625 -23.171875 C 5.15625 -22.492188 5.15625 -21.835938 5.15625 -21.203125 C 5.15625 -20.398438 5.113281 -19.878906 5.03125 -19.640625 C 4.945312 -19.398438 4.90625 -18.882812 4.90625 -18.09375 C 5.789062 -18.726562 6.59375 -19.460938 7.3125 -20.296875 C 8.03125 -21.140625 9.304688 -21.5625 11.140625 -21.5625 C 11.703125 -21.5625 12.441406 -21.582031 13.359375 -21.625 C 14.273438 -21.664062 15.253906 -21.6875 16.296875 -21.6875 C 18.046875 -21.6875 19.679688 -21.582031 21.203125 -21.375 C 22.722656 -21.175781 23.484375 -20.679688 23.484375 -19.890625 C 23.484375 -19.085938 23.0625 -18.566406 22.21875 -18.328125 C 21.382812 -18.085938 20.367188 -17.96875 19.171875 -17.96875 C 18.367188 -17.96875 17.546875 -17.988281 16.703125 -18.03125 C 15.867188 -18.070312 15.132812 -18.09375 14.5 -18.09375 C 12.257812 -18.09375 10.757812 -17.972656 10 -17.734375 C 9.238281 -17.492188 8.378906 -16.570312 7.421875 -14.96875 C 6.867188 -13.9375 6.332031 -12.820312 5.8125 -11.625 C 5.289062 -10.425781 4.910156 -9.109375 4.671875 -7.671875 C 4.429688 -6.628906 4.332031 -5.546875 4.375 -4.421875 C 4.414062 -3.304688 4.296875 -2.367188 4.015625 -1.609375 C 3.734375 -0.859375 2.953125 -0.484375 1.671875 -0.484375 Z M 1.671875 -0.484375 "/></g></g></g><g fill="#122620" fill-opacity="1"><g transform="translate(292.964218, 221.077188)"><g><path d="M 5.515625 -21.6875 C 7.023438 -22.476562 8.695312 -23.570312 10.53125 -24.96875 C 12.375 -26.375 13.375 -28.035156 13.53125 -29.953125 C 12.5 -29.785156 11.398438 -29.222656 10.234375 -28.265625 C 9.078125 -27.304688 8.078125 -26.226562 7.234375 -25.03125 C 6.398438 -23.832031 5.828125 -22.71875 5.515625 -21.6875 Z M 0.125 -18.8125 C 0.125 -20.800781 0.78125 -22.953125 2.09375 -25.265625 C 3.414062 -27.585938 5.050781 -29.566406 7 -31.203125 C 8.957031 -32.835938 10.894531 -33.65625 12.8125 -33.65625 C 15.445312 -33.65625 16.820312 -32.65625 16.9375 -30.65625 C 17.0625 -28.664062 16.207031 -26.515625 14.375 -24.203125 C 13.414062 -23.160156 11.976562 -21.957031 10.0625 -20.59375 C 8.144531 -19.238281 6.269531 -18.484375 4.4375 -18.328125 C 4.4375 -17.046875 4.472656 -15.90625 4.546875 -14.90625 C 4.628906 -13.914062 5.191406 -12.898438 6.234375 -11.859375 C 7.265625 -10.816406 8.582031 -10.296875 10.1875 -10.296875 C 12.257812 -10.296875 14.410156 -10.953125 16.640625 -12.265625 C 18.878906 -13.585938 20.597656 -14.691406 21.796875 -15.578125 C 22.273438 -15.972656 22.65625 -16.289062 22.9375 -16.53125 C 23.21875 -16.769531 23.554688 -17.050781 23.953125 -17.375 C 25.628906 -18.644531 26.6875 -19.578125 27.125 -20.171875 C 27.570312 -20.773438 27.953125 -21.175781 28.265625 -21.375 C 28.585938 -21.582031 29.347656 -21.6875 30.546875 -21.6875 C 30.703125 -20.800781 30.757812 -20.195312 30.71875 -19.875 C 30.675781 -19.5625 30.378906 -19.085938 29.828125 -18.453125 C 28.390625 -17.015625 26.570312 -15.375 24.375 -13.53125 C 22.175781 -11.695312 19.816406 -10.097656 17.296875 -8.734375 C 14.785156 -7.378906 12.296875 -6.703125 9.828125 -6.703125 C 8.546875 -6.703125 7.328125 -6.921875 6.171875 -7.359375 C 5.015625 -7.804688 3.914062 -8.546875 2.875 -9.578125 C 1.4375 -11.015625 0.617188 -12.492188 0.421875 -14.015625 C 0.222656 -15.535156 0.125 -17.132812 0.125 -18.8125 Z M 0.125 -18.8125 "/></g></g></g><path fill="#fffef9" d="M 233.765625 274.089844 C 230.109375 276.042969 226.347656 277.765625 222.484375 279.261719 C 218.617188 280.753906 214.675781 282.007812 210.65625 283.023438 C 206.636719 284.035156 202.574219 284.800781 198.460938 285.320312 C 194.351562 285.839844 190.222656 286.105469 186.078125 286.121094 C 181.933594 286.136719 177.804688 285.898438 173.6875 285.410156 C 169.570312 284.921875 165.5 284.1875 161.476562 283.203125 C 157.449219 282.21875 153.5 280.992188 149.621094 279.527344 C 145.746094 278.058594 141.972656 276.363281 138.304688 274.4375 L 148.871094 254.304688 C 151.722656 255.800781 154.652344 257.121094 157.667969 258.257812 C 160.679688 259.398438 163.75 260.351562 166.878906 261.117188 C 170.003906 261.878906 173.167969 262.453125 176.367188 262.832031 C 179.566406 263.210938 182.773438 263.394531 185.996094 263.382812 C 189.214844 263.371094 192.421875 263.164062 195.617188 262.761719 C 198.8125 262.359375 201.972656 261.765625 205.09375 260.976562 C 208.21875 260.1875 211.28125 259.214844 214.285156 258.050781 C 217.289062 256.890625 220.210938 255.550781 223.050781 254.035156 Z M 233.765625 274.089844 " fill-opacity="1" fill-rule="nonzero"/><g fill="#122620" fill-opacity="1"><g transform="translate(144.75035, 271.225852)"><g><path d="M 9.03125 -7.140625 L 5.203125 2.140625 L 3.765625 1.546875 L 7.59375 -7.734375 L 4.03125 -9.203125 L 4.546875 -10.46875 L 13.109375 -6.9375 L 12.59375 -5.671875 Z M 9.03125 -7.140625 "/></g></g></g><g fill="#122620" fill-opacity="1"><g transform="translate(167.163851, 278.631987)"><g><path d="M 9.671875 0.015625 L 9.484375 1.359375 L 1.140625 0.15625 L 2.75 -11.140625 L 10.984375 -9.953125 L 10.796875 -8.59375 L 4.09375 -9.5625 L 3.609375 -6.25 L 9.78125 -5.359375 L 9.59375 -4.015625 L 3.421875 -4.90625 L 2.859375 -0.96875 Z M 9.671875 0.015625 "/></g></g></g><g fill="#122620" fill-opacity="1"><g transform="translate(191.4566, 280.338041)"><g><path d="M 9.671875 -9.15625 L 8.203125 -8.984375 C 8.046875 -9.472656 7.828125 -9.859375 7.546875 -10.140625 C 7.273438 -10.421875 6.972656 -10.625 6.640625 -10.75 C 6.316406 -10.875 5.988281 -10.945312 5.65625 -10.96875 C 5.332031 -10.988281 5.035156 -10.984375 4.765625 -10.953125 C 4.097656 -10.867188 3.5 -10.628906 2.96875 -10.234375 C 2.445312 -9.847656 2.054688 -9.300781 1.796875 -8.59375 C 1.546875 -7.882812 1.476562 -7.03125 1.59375 -6.03125 C 1.707031 -5.144531 1.921875 -4.359375 2.234375 -3.671875 C 2.554688 -2.992188 3.007812 -2.476562 3.59375 -2.125 C 4.1875 -1.78125 4.953125 -1.660156 5.890625 -1.765625 C 6.140625 -1.796875 6.414062 -1.863281 6.71875 -1.96875 C 7.03125 -2.082031 7.328125 -2.269531 7.609375 -2.53125 C 7.898438 -2.800781 8.148438 -3.15625 8.359375 -3.59375 C 8.578125 -4.03125 8.710938 -4.582031 8.765625 -5.25 L 10.234375 -5.421875 C 10.203125 -4.554688 10.0625 -3.828125 9.8125 -3.234375 C 9.570312 -2.640625 9.257812 -2.160156 8.875 -1.796875 C 8.5 -1.429688 8.109375 -1.148438 7.703125 -0.953125 C 7.296875 -0.753906 6.921875 -0.613281 6.578125 -0.53125 C 6.242188 -0.457031 5.988281 -0.410156 5.8125 -0.390625 C 5.175781 -0.304688 4.539062 -0.335938 3.90625 -0.484375 C 3.28125 -0.640625 2.695312 -0.925781 2.15625 -1.34375 C 1.613281 -1.769531 1.15625 -2.34375 0.78125 -3.0625 C 0.40625 -3.789062 0.15625 -4.703125 0.03125 -5.796875 C -0.101562 -6.960938 -0.015625 -8.015625 0.296875 -8.953125 C 0.617188 -9.890625 1.140625 -10.65625 1.859375 -11.25 C 2.585938 -11.84375 3.5 -12.203125 4.59375 -12.328125 C 5.570312 -12.441406 6.410156 -12.359375 7.109375 -12.078125 C 7.816406 -11.796875 8.382812 -11.394531 8.8125 -10.875 C 9.238281 -10.351562 9.523438 -9.78125 9.671875 -9.15625 Z M 9.671875 -9.15625 "/></g></g></g><g fill="#122620" fill-opacity="1"><g transform="translate(216.455832, 275.519663)"><g><path d="M -1.734375 -11.578125 L 0.03125 -7.203125 L 5.546875 -9.421875 L 3.78125 -13.796875 L 5.203125 -14.375 L 9.453125 -3.796875 L 8.03125 -3.21875 L 6.046875 -8.15625 L 0.53125 -5.9375 L 2.515625 -1 L 1.078125 -0.4375 L -3.171875 -11.015625 Z M -1.734375 -11.578125 "/></g></g></g></svg>